<svg width="65" height="41" viewBox="0 0 65 41" fill="none" xmlns="http://www.w3.org/2000/svg">
<path d="M62.3213 0.5C62.3362 0.500309 62.3624 0.501573 62.3984 0.504883C62.4708 0.511536 62.5818 0.527601 62.7188 0.564453C62.9914 0.637841 63.3696 0.79473 63.7598 1.13574C64.1567 1.4827 64.3384 1.79817 64.4229 2.00586C64.4656 2.11094 64.4846 2.19205 64.4932 2.24023C64.4975 2.26438 64.4994 2.28041 64.5 2.28711V38.6738C64.4969 38.6884 64.4929 38.7086 64.4863 38.7334C64.4685 38.8002 64.4365 38.9005 64.3838 39.0205C64.2784 39.2605 64.0902 39.5753 63.7598 39.8643C63.3932 40.1847 63.0152 40.3445 62.7305 40.4238C62.5882 40.4634 62.4703 40.4819 62.3916 40.4912C62.3524 40.4958 62.323 40.4981 62.3057 40.499C62.2971 40.4995 62.2915 40.4999 62.2891 40.5H2.71191C2.70984 40.4999 2.7044 40.4995 2.69629 40.499C2.68004 40.4981 2.65195 40.4967 2.61426 40.4922C2.53869 40.483 2.42448 40.4634 2.28418 40.4238C2.00366 40.3447 1.62122 40.1845 1.2334 39.8584C0.8473 39.5337 0.666766 39.222 0.581055 39.0098C0.537709 38.9024 0.517244 38.8172 0.507812 38.7646C0.503137 38.7386 0.500771 38.7205 0.5 38.7119V2.28418C0.500649 2.27606 0.502452 2.25808 0.506836 2.23242C0.515705 2.18067 0.535453 2.09592 0.578125 1.98926C0.662272 1.77892 0.841815 1.46818 1.23145 1.14355C1.64098 0.802401 2.0243 0.642593 2.2959 0.567383C2.43232 0.529614 2.54193 0.513214 2.6123 0.505859C2.64719 0.502225 2.67239 0.500478 2.68652 0.5H62.3213ZM60.1025 7.01953L32.499 26.7598L4.89746 7.02051L4.10645 6.45508V37.7041H60.8936V6.4541L60.1025 7.01953ZM7.79492 4.19727L32.2012 22.3779L32.5 22.6006L32.7988 22.3779L57.2041 4.19727L58.4141 3.29688H6.58496L7.79492 4.19727Z" fill="white" stroke="white"/>
</svg>
