<?xml version="1.0" encoding="UTF-8" standalone="no"?>
<svg
   width="35"
   height="45"
   viewBox="0 0 35 45"
   fill="none"
   version="1.1"
   id="svg1"
   sodipodi:docname="kontakt icon.svg"
   inkscape:version="1.4 (86a8ad7, 2024-10-11)"
   xmlns:inkscape="http://www.inkscape.org/namespaces/inkscape"
   xmlns:sodipodi="http://sodipodi.sourceforge.net/DTD/sodipodi-0.dtd"
   xmlns="http://www.w3.org/2000/svg"
   xmlns:svg="http://www.w3.org/2000/svg">
  <defs
     id="defs1" />
  <sodipodi:namedview
     id="namedview1"
     pagecolor="#ffffff"
     bordercolor="#000000"
     borderopacity="0.25"
     inkscape:showpageshadow="2"
     inkscape:pageopacity="0.0"
     inkscape:pagecheckerboard="0"
     inkscape:deskcolor="#d1d1d1"
     inkscape:zoom="17.177778"
     inkscape:cx="17.493532"
     inkscape:cy="22.5"
     inkscape:window-width="1920"
     inkscape:window-height="991"
     inkscape:window-x="-9"
     inkscape:window-y="-9"
     inkscape:window-maximized="1"
     inkscape:current-layer="svg1" />
  <path
     d="M30.0706 0.546728C30.2218 0.470906 30.3877 0.423361 30.559 0.406808C30.7302 0.390255 30.9034 0.405019 31.0685 0.450255C31.2337 0.495492 31.3877 0.570316 31.5217 0.670451C31.6557 0.770587 31.767 0.894072 31.8494 1.03385C33.4763 3.80537 34.3473 6.90007 34.3868 10.0496C34.4293 13.1992 33.6391 16.3092 32.0847 19.11C31.9257 19.3953 31.6504 19.6103 31.3192 19.7078C30.9881 19.8053 30.6283 19.7772 30.3191 19.6298C30.0098 19.4825 29.7763 19.2278 29.6701 18.9219C29.5638 18.616 29.5934 18.2839 29.7525 17.9986C31.1115 15.5487 31.8024 12.8285 31.7652 10.0738C31.728 7.21764 30.9274 4.53311 29.5466 2.188C29.4642 2.04826 29.4123 1.89495 29.394 1.73682C29.3758 1.5787 29.3914 1.41886 29.4401 1.26644C29.4887 1.11403 29.5695 0.972016 29.6776 0.848525C29.7858 0.725033 29.9194 0.622482 30.0706 0.546728ZM26.2948 4.1546C26.4544 4.09518 26.6253 4.06542 26.7976 4.06702C26.9698 4.06863 27.1401 4.10157 27.2987 4.16396C27.4573 4.22634 27.6011 4.31696 27.7219 4.43062C27.8427 4.54428 27.938 4.67875 28.0025 4.82636C28.716 6.45865 29.1193 8.23662 29.1436 10.098C29.1678 11.9593 28.8108 13.7443 28.1374 15.3894C28.0028 15.6735 27.7551 15.8987 27.4454 16.0186C27.1356 16.1385 26.7876 16.144 26.4732 16.0338C26.1588 15.9236 25.902 15.7061 25.7558 15.4264C25.6097 15.1467 25.5853 14.8261 25.6879 14.5308C26.2469 13.1628 26.5422 11.6761 26.5219 10.1221C26.5017 8.56819 26.1678 7.08733 25.5733 5.72991C25.4425 5.43225 25.445 5.09906 25.5803 4.80363C25.7156 4.5082 25.9726 4.27474 26.2948 4.1546Z"
     stroke="#41249A"
     stroke-width="3"
     id="path1"
     style="stroke:#41249a;stroke-opacity:1;fill:#41249a;opacity:0.99;stroke-width:0;stroke-dasharray:none;fill-opacity:1" />
  <ellipse
     cx="11.5144"
     cy="38.6326"
     rx="2.28882"
     ry="2.38776"
     fill="#41249A"
     id="ellipse1" />
  <rect
     x="1.25"
     y="7.25"
     width="19.6253"
     height="36.5"
     rx="1.75"
     stroke="#41249A"
     stroke-width="2.5"
     id="rect1" />
</svg>
