<svg width="58" height="76" viewBox="0 0 58 76" fill="none" xmlns="http://www.w3.org/2000/svg">
<mask id="path-1-inside-1_76_179" fill="white">
<path d="M50.5346 0.305332C50.7886 0.176225 51.0675 0.095266 51.3553 0.0670798C51.643 0.0388937 51.934 0.0640324 52.2116 0.141061C52.4892 0.218089 52.748 0.345497 52.9732 0.516006C53.1983 0.686515 53.3854 0.896783 53.5238 1.1348C56.258 5.85408 57.7217 11.1237 57.7881 16.4867C57.8596 21.8497 56.5316 27.1454 53.9194 31.9146C53.6522 32.4003 53.1894 32.7664 52.6329 32.9324C52.0765 33.0984 51.4719 33.0507 50.9521 32.7997C50.4324 32.5488 50.04 32.1151 49.8615 31.5942C49.6829 31.0733 49.7327 30.5078 49.9999 30.0221C52.2838 25.8504 53.4448 21.2185 53.3824 16.5279C53.3199 11.6644 51.9745 7.09328 49.654 3.10007C49.5154 2.86211 49.4283 2.60105 49.3976 2.3318C49.3669 2.06255 49.3932 1.79038 49.4749 1.53085C49.5567 1.27132 49.6924 1.02951 49.8742 0.819226C50.056 0.608947 50.2804 0.434325 50.5346 0.305332ZM44.1892 6.44875C44.4575 6.34757 44.7446 6.2969 45.0341 6.29963C45.3236 6.30236 45.6098 6.35845 45.8764 6.46468C46.1429 6.57092 46.3846 6.72522 46.5875 6.91875C46.7905 7.11229 46.9507 7.34127 47.0591 7.59261C48.2581 10.372 48.9359 13.3995 48.9766 16.569C49.0174 19.7385 48.4175 22.7779 47.2858 25.5791C47.0596 26.0629 46.6433 26.4464 46.1228 26.6506C45.6023 26.8548 45.0174 26.864 44.489 26.6764C43.9606 26.4887 43.529 26.1185 43.2834 25.6422C43.0378 25.166 42.9969 24.62 43.1692 24.1172C44.1087 21.7877 44.6049 19.2562 44.5709 16.6102C44.5369 13.9641 43.9757 11.4426 42.9767 9.13117C42.7569 8.62432 42.7612 8.05696 42.9885 7.55391C43.2159 7.05086 43.6478 6.65332 44.1892 6.44875Z"/>
<path d="M51.3553 0.0670798C51.0675 0.095266 50.7886 0.176225 50.5346 0.305332C50.2804 0.434325 50.056 0.608947 49.8742 0.819226C49.6924 1.02951 49.5567 1.27132 49.4749 1.53085C49.3932 1.79038 49.3669 2.06255 49.3976 2.3318C49.4283 2.60105 49.5154 2.86211 49.654 3.10007C51.9745 7.09328 53.3199 11.6644 53.3824 16.5279C53.4448 21.2185 52.2838 25.8504 49.9999 30.0221C49.7327 30.5078 49.6829 31.0733 49.8615 31.5942C50.04 32.1151 50.4324 32.5488 50.9521 32.7997C51.4719 33.0507 52.0765 33.0984 52.6329 32.9324C53.1894 32.7664 53.6522 32.4003 53.9194 31.9146C56.5316 27.1454 57.8596 21.8497 57.7881 16.4867C57.7217 11.1237 56.258 5.85408 53.5238 1.1348C53.3854 0.896783 53.1983 0.686515 52.9732 0.516006C52.748 0.345497 52.4892 0.218089 52.2116 0.141061C51.934 0.0640324 51.643 0.0388937 51.3553 0.0670798Z"/>
<path d="M45.0341 6.29963C44.7446 6.2969 44.4575 6.34757 44.1892 6.44875C43.6478 6.65332 43.2159 7.05086 42.9885 7.55391C42.7612 8.05696 42.7569 8.62432 42.9767 9.13117C43.9757 11.4426 44.5369 13.9641 44.5709 16.6102C44.6049 19.2562 44.1087 21.7877 43.1692 24.1172C42.9969 24.62 43.0378 25.166 43.2834 25.6422C43.529 26.1185 43.9606 26.4887 44.489 26.6764C45.0174 26.864 45.6023 26.8548 46.1228 26.6506C46.6433 26.4464 47.0596 26.0629 47.2858 25.5791C48.4175 22.7779 49.0174 19.7385 48.9766 16.569C48.9359 13.3995 48.2581 10.372 47.0591 7.59261C46.9507 7.34127 46.7905 7.11229 46.5875 6.91875C46.3846 6.72522 46.1429 6.57092 45.8764 6.46468C45.6098 6.35845 45.3236 6.30236 45.0341 6.29963Z"/>
</mask>
<path d="M50.5346 0.305332L51.6724 2.53532L51.6734 2.5348L50.5346 0.305332ZM53.5238 1.1348L55.686 -0.112654L55.684 -0.116137L53.5238 1.1348ZM57.7881 16.4867L55.2882 16.5089L55.2882 16.5113L57.7881 16.4867ZM53.9194 31.9146L56.1109 33.1255L56.1131 33.1214L53.9194 31.9146ZM49.9999 30.0221L52.1914 31.2329L52.1939 31.2284L49.9999 30.0221ZM53.3824 16.5279L50.8825 16.5512L50.8825 16.5524L53.3824 16.5279ZM49.654 3.10007L51.8145 1.84976L51.8135 1.84805L49.654 3.10007ZM44.1892 6.44875L43.2998 4.10926L43.2982 4.10988L44.1892 6.44875ZM47.0591 7.59261L44.764 8.57584L44.764 8.57593L47.0591 7.59261ZM47.2858 25.5791L49.5512 26.6447L49.5794 26.5843L49.6044 26.5225L47.2858 25.5791ZM43.1692 24.1172L40.8501 23.1752L40.8253 23.2367L40.8038 23.2995L43.1692 24.1172ZM42.9767 9.13117L45.271 8.14615L45.2699 8.14348L42.9767 9.13117ZM50.5346 0.305332L51.6734 2.5348C51.647 2.54818 51.6248 2.5534 51.6077 2.55508L51.3553 0.0670798L51.1029 -2.42092C50.5102 -2.36287 49.9302 -2.19573 49.3957 -1.92414L50.5346 0.305332ZM51.3553 0.0670798L51.6077 2.55508C51.5905 2.55676 51.5719 2.55558 51.551 2.54977L52.2116 0.141061L52.8723 -2.26764C52.2962 -2.42751 51.6956 -2.47897 51.1029 -2.42092L51.3553 0.0670798ZM52.2116 0.141061L51.551 2.54977C51.5299 2.54392 51.501 2.53179 51.4682 2.50693L52.9732 0.516006L54.4781 -1.47492C53.995 -1.8408 53.4486 -2.10774 52.8723 -2.26764L52.2116 0.141061ZM52.9732 0.516006L51.4682 2.50693C51.435 2.48183 51.3968 2.44271 51.3637 2.38573L53.5238 1.1348L55.684 -0.116137C55.3741 -0.64914 54.9616 -1.1088 54.4781 -1.47492L52.9732 0.516006ZM53.5238 1.1348L51.3616 2.38225C53.8832 6.73461 55.2273 11.583 55.2882 16.5089L57.7881 16.4867L60.288 16.4646C60.2162 10.6643 58.6328 4.97355 55.686 -0.112653L53.5238 1.1348ZM57.7881 16.4867L55.2882 16.5113C55.3539 21.4371 54.1348 26.3094 51.7256 30.7079L53.9194 31.9146L56.1131 33.1214C58.9285 27.9814 60.3653 22.2624 60.288 16.4622L57.7881 16.4867ZM53.9194 31.9146L51.7279 30.7038C51.7917 30.5877 51.873 30.5478 51.9105 30.5366L52.6329 32.9324L53.3553 35.3282C54.5058 34.9851 55.5126 34.2129 56.1109 33.1255L53.9194 31.9146ZM52.6329 32.9324L51.9105 30.5366C51.9314 30.5304 51.95 30.529 51.9669 30.5303C51.9837 30.5316 52.0061 30.5363 52.0329 30.5493L50.9521 32.7997L49.8714 35.0502C50.959 35.5754 52.2072 35.6707 53.3553 35.3282L52.6329 32.9324ZM50.9521 32.7997L52.0329 30.5493C52.0849 30.5744 52.176 30.6447 52.2262 30.791L49.8615 31.5942L47.4968 32.3974C47.9041 33.5856 48.7798 34.5231 49.8714 35.0502L50.9521 32.7997ZM49.8615 31.5942L52.2262 30.791C52.2786 30.9439 52.2595 31.1092 52.1914 31.2329L49.9999 30.0221L47.8084 28.8113C47.2059 29.9064 47.0872 31.2027 47.4968 32.3974L49.8615 31.5942ZM49.9999 30.0221L52.1939 31.2284C54.6807 26.686 55.9505 21.631 55.8822 16.5034L53.3824 16.5279L50.8825 16.5524C50.9391 20.806 49.8869 25.0147 47.8059 28.8158L49.9999 30.0221ZM53.3824 16.5279L55.8823 16.5045C55.814 11.1932 54.3433 6.20135 51.8145 1.84976L49.654 3.10007L47.4934 4.35038C49.6057 7.9852 50.8257 12.1357 50.8825 16.5512L53.3824 16.5279ZM49.654 3.10007L51.8135 1.84805C51.847 1.90551 51.8724 1.97661 51.8816 2.05708L49.3976 2.3318L46.9136 2.60653C46.9842 3.22549 47.1839 3.81872 47.4944 4.35208L49.654 3.10007ZM49.3976 2.3318L51.8816 2.05708C51.8908 2.13771 51.8824 2.21759 51.8597 2.28968L49.4749 1.53085L47.0902 0.77202C46.9039 1.36318 46.843 1.98739 46.9136 2.60653L49.3976 2.3318ZM49.4749 1.53085L51.8597 2.28968C51.8372 2.36133 51.803 2.41747 51.7679 2.458L49.8742 0.819226L47.9805 -0.819545C47.5818 -0.358464 47.2763 0.181307 47.0902 0.77202L49.4749 1.53085ZM49.8742 0.819226L51.7679 2.458C51.7332 2.49812 51.6989 2.52186 51.6724 2.53532L50.5346 0.305332L49.3968 -1.92466C48.8619 -1.65321 48.3788 -1.28023 47.9805 -0.819545L49.8742 0.819226ZM44.1892 6.44875L45.0785 8.78824C45.0557 8.79685 45.036 8.79958 45.0193 8.79942L45.0341 6.29963L45.049 3.79984C44.4532 3.79421 43.8593 3.89828 43.2998 4.10926L44.1892 6.44875ZM45.0341 6.29963L45.0193 8.79942C45.0025 8.79926 44.982 8.79615 44.9577 8.78646L45.8764 6.46468L46.795 4.1429C46.2376 3.92075 45.6447 3.80546 45.049 3.79984L45.0341 6.29963ZM45.8764 6.46468L44.9577 8.78646C44.9332 8.77671 44.9004 8.75839 44.8654 8.72493L46.5875 6.91875L48.3097 5.11258C47.8687 4.69205 47.3526 4.36513 46.795 4.1429L45.8764 6.46468ZM46.5875 6.91875L44.8654 8.72493C44.8299 8.69113 44.7925 8.64199 44.764 8.57584L47.0591 7.59261L49.3543 6.60937C49.1089 6.04056 48.751 5.53345 48.3097 5.11258L46.5875 6.91875ZM47.0591 7.59261L44.764 8.57593C45.8358 11.0605 46.4404 13.7624 46.4767 16.5924L48.9766 16.569L51.4765 16.5457C51.4314 13.0367 50.6804 9.6836 49.3542 6.60928L47.0591 7.59261ZM48.9766 16.569L46.4767 16.5924C46.5131 19.4223 45.9781 22.1337 44.9673 24.6358L47.2858 25.5791L49.6044 26.5225C50.8569 23.4222 51.5216 20.0547 51.4765 16.5457L48.9766 16.569ZM47.2858 25.5791L45.0205 24.5136C45.0781 24.3905 45.16 24.3397 45.2026 24.323L46.1228 26.6506L47.043 28.9782C48.1265 28.5532 49.0412 27.7352 49.5512 26.6447L47.2858 25.5791ZM46.1228 26.6506L45.2026 24.323C45.2253 24.3141 45.2447 24.3111 45.2607 24.3108C45.2767 24.3106 45.2959 24.313 45.3184 24.321L44.489 26.6764L43.6596 29.0318C44.7559 29.4211 45.962 29.4023 47.043 28.9782L46.1228 26.6506ZM44.489 26.6764L45.3184 24.321C45.3604 24.3359 45.4429 24.383 45.5046 24.5027L43.2834 25.6422L41.0622 26.7818C41.6151 27.854 42.5608 28.6415 43.6596 29.0318L44.489 26.6764ZM43.2834 25.6422L45.5046 24.5027C45.5698 24.629 45.5844 24.7898 45.5347 24.9348L43.1692 24.1172L40.8038 23.2995C40.4095 24.4503 40.5058 25.7029 41.0622 26.7818L43.2834 25.6422ZM43.1692 24.1172L45.4884 25.0591C46.5492 22.4287 47.1091 19.5695 47.0708 16.5868L44.5709 16.6102L42.071 16.6335C42.1007 18.9429 41.6682 21.1467 40.8501 23.1752L43.1692 24.1172ZM44.5709 16.6102L47.0708 16.5868C47.0325 13.6041 46.3992 10.7561 45.271 8.14615L42.9767 9.13117L40.6823 10.1162C41.5523 12.129 42.0413 14.3241 42.071 16.6335L44.5709 16.6102ZM42.9767 9.13117L45.2699 8.14348C45.3315 8.28554 45.3293 8.45316 45.2674 8.59017L42.9885 7.55391L40.7097 6.51765C40.193 7.66076 40.1823 8.96309 40.6834 10.1189L42.9767 9.13117ZM42.9885 7.55391L45.2674 8.59017C45.2088 8.7196 45.123 8.77144 45.0802 8.78762L44.1892 6.44875L43.2982 4.10988C42.1726 4.53521 41.223 5.38212 40.7097 6.51765L42.9885 7.55391Z" fill="white" mask="url(#path-1-inside-1_76_179)"/>
<mask id="path-3-inside-2_76_179" fill="white">
<ellipse cx="19.3503" cy="65.1576" rx="3.84644" ry="4.06583"/>
</mask>
<ellipse cx="19.3503" cy="65.1576" rx="3.84644" ry="4.06583" fill="white"/>
<path d="M23.1968 65.1576H18.1968C18.1968 64.9894 18.2646 64.7798 18.438 64.5964C18.616 64.4082 18.9393 64.2235 19.3503 64.2235V69.2235V74.2235C24.4938 74.2235 28.1968 69.8996 28.1968 65.1576H23.1968ZM19.3503 69.2235V64.2235C19.7614 64.2235 20.0847 64.4082 20.2627 64.5964C20.4361 64.7798 20.5039 64.9894 20.5039 65.1576H15.5039H10.5039C10.5039 69.8996 14.2069 74.2235 19.3503 74.2235V69.2235ZM15.5039 65.1576H20.5039C20.5039 65.3258 20.4361 65.5355 20.2627 65.7188C20.0847 65.907 19.7614 66.0918 19.3503 66.0918V61.0918V56.0918C14.2069 56.0918 10.5039 60.4156 10.5039 65.1576H15.5039ZM19.3503 61.0918V66.0918C18.9393 66.0918 18.616 65.907 18.438 65.7188C18.2646 65.5355 18.1968 65.3258 18.1968 65.1576H23.1968H28.1968C28.1968 60.4156 24.4938 56.0918 19.3503 56.0918V61.0918Z" fill="white" mask="url(#path-3-inside-2_76_179)"/>
<rect x="2.5" y="12.0913" width="32.1823" height="61.4085" rx="2.5" stroke="white" stroke-width="5"/>
</svg>
