<svg width="50" height="41" viewBox="0 0 50 41" fill="none" xmlns="http://www.w3.org/2000/svg">
<path d="M20.3301 27.2849L26.6185 28.9322C27.7428 29.2263 29.534 29.8147 30.7917 28.285M30.7917 28.285C31.8779 26.167 30.22 24.5197 28.2192 23.6961C26.6185 23.0371 22.8645 22.0095 21.1876 21.5781C19.93 21.2643 16.5457 21.178 13.0699 23.3431C12.0992 23.9477 11.1989 24.2926 10.4314 24.4758C8.85592 24.8516 8.25168 25.6289 8.30326 27.2477L8.4705 32.4972C8.5182 33.9945 9.66302 35.2265 11.1473 35.4297C14.2547 35.8549 18.7163 36.5949 22.2738 37.5806C28.2192 39.2279 29.0195 39.9927 33.1927 36.7569C36.5313 34.1683 42.9492 28.1085 45.8838 25.9317C46.7985 25.2532 47.9672 24.4609 47.999 23.2842C48.0561 21.1663 45.8838 20.9011 42.9111 22.3429C41.219 23.143 34.1264 26.6377 30.7917 28.285Z" stroke="#41249A" stroke-width="2.5" stroke-linecap="round"/>
<rect x="1.26914" y="1.22923" width="7.64387" height="11.9258" rx="1.75" transform="matrix(0.999864 -0.0164963 0.0154487 0.999881 -0.0188173 22.7711)" fill="white" stroke="#41249A" stroke-width="2.5"/>
<path d="M34.4032 20.8516C34.2444 20.8876 34.0562 20.915 33.8309 20.9238C33.5856 20.9335 33.3758 20.9125 33.1962 20.874C33.5962 20.876 34.0018 20.8682 34.4032 20.8516ZM33.8798 1.25C37.8553 1.25 40.9569 4.27979 40.9569 7.87109C40.9569 9.26283 40.1558 10.8817 38.8495 12.0137C37.6394 13.0623 37.2042 14.3724 37.0995 15.5576C36.8917 15.6358 36.651 15.7257 36.3885 15.8125C35.5239 16.0984 34.5697 16.3357 33.8759 16.3379C33.1735 16.3401 32.2073 16.1027 31.3309 15.8154C31.0564 15.7254 30.8048 15.6334 30.5897 15.5527C30.5673 15.2031 30.5262 14.835 30.4296 14.4775C30.2313 13.744 29.8368 13.102 29.1698 12.4492C28.5456 11.8385 28.0315 11.3919 27.6132 10.7197C27.2249 10.0959 26.9052 9.23557 26.9052 7.87109C26.9052 4.26042 29.9249 1.25024 33.8798 1.25Z" stroke="#4B4188" stroke-width="2.5"/>
<path d="M34.3448 4.20593C35.0345 4.20593 37.2414 4.97064 37.6552 6.8824" stroke="#41249A" stroke-width="2.5" stroke-linecap="round"/>
</svg>
