<svg width="38" height="38" viewBox="0 0 38 38" fill="none" xmlns="http://www.w3.org/2000/svg">
<path d="M19.79 21.9142C15.569 21.6582 7.51083 21.5304 4.05716 27.2888C2.26702 30.2736 1.97514 32.5584 2.00157 34.1249C2.02021 35.2294 3.03408 36.1187 4.1387 36.1187H19.79M28.9919 33.8306V28.4559" stroke="#41249A" stroke-width="2.5" stroke-linecap="round"/>
<path d="M17.1775 1.25C22.0532 1.25 25.9529 5.09883 25.9529 9.78223C25.9528 14.4656 22.0532 18.3145 17.1775 18.3145C12.3018 18.3144 8.40214 14.4655 8.4021 9.78223C8.4021 5.09888 12.3018 1.25008 17.1775 1.25Z" stroke="#41249A" stroke-width="2.5"/>
<path d="M28.7451 21.1906C33.1948 21.1906 36.7498 24.7022 36.75 28.9698C36.75 33.2377 33.1949 36.7501 28.7451 36.7501C24.2955 36.7499 20.7412 33.2375 20.7412 28.9698C20.7414 24.7023 24.2956 21.1908 28.7451 21.1906Z" stroke="#41249A" stroke-width="2.5"/>
<ellipse cx="28.977" cy="24.8316" rx="1.54239" ry="1.50495" fill="#41249A"/>
</svg>
