<svg width="46" height="43" viewBox="0 0 46 43" fill="none" xmlns="http://www.w3.org/2000/svg">
<path d="M32.1006 22.5406L34.2162 16.9294C34.5464 16.0536 35.7913 16.0709 36.0971 16.9555L38.5334 24.0052V40.994C43.6963 40.994 44 39.8224 44 37.1862C44 31.7185 44 19.6701 44 15.2178C44 10.7656 41.8742 10.5312 38.2298 10.5313H6.34171C2.39371 10.5313 2.16359 11.9958 2.08997 14.3391C1.8875 20.7832 2.09004 34.2571 2.08997 37.772C2.0899 41.2869 5.12697 40.994 6.34171 40.994H22.4376C22.4376 38.3578 22.2711 31.9059 23 30.0312C23.3417 29.1525 23.8629 28.5431 24.1667 29.4219L26.993 40.994H31.5485V24.0052L32.1006 22.5406ZM32.1006 22.5406L35.1928 24.591M35.1928 24.591L37.6223 22.8335M35.1928 24.591V39.5295M25.1708 28.3988C19.7384 29.9626 15.7958 22.2404 24.0172 16.0263C24.3923 15.7429 24.9191 16.1159 24.8306 16.5776C24.5693 17.94 24.4706 19.646 25.1709 20.4902C26.3856 21.9548 28.8333 26.9844 25.1708 28.3988Z" stroke="#41249A" stroke-width="2.5" stroke-linecap="round"/>
<path d="M17.1955 6.875C17.1956 5.25002 16.5461 2 21.417 2C25.8334 2 26.6129 2.00016 27.9118 2.00008C31.4838 1.99986 31.1591 4.60008 31.1591 6.875" stroke="#41249A" stroke-width="2.5" stroke-linecap="round"/>
</svg>
