<svg width="184" height="222" viewBox="0 0 184 222" fill="none" xmlns="http://www.w3.org/2000/svg">
<path d="M101.053 111.528L47.4669 202.721C47.316 202.977 47.0594 203.155 46.7642 203.194C42.0548 203.813 32.4257 203.038 27.5227 195.401C27.3312 195.103 27.326 194.721 27.4972 194.411L69.7728 117.751" stroke="white" stroke-width="10" stroke-linecap="round"/>
<path d="M94.2893 81.5343C102.743 79.543 120.948 73.2955 130.642 79.6675C142.759 87.6325 142.477 90.3705 151.777 96.0954C161.061 101.811 168.098 117.699 159.988 152.677C159.963 152.787 159.91 152.893 159.88 153.002C159.467 154.484 164.43 158.754 175.73 170.27C190.383 185.204 151.777 211.45 139.191 214.361C126.723 217.246 118.466 223.641 109.461 193.952C109.316 193.475 108.842 193.155 108.346 193.207C99.9281 194.103 78.2502 191.775 63.2913 180.724" stroke="white" stroke-width="10"/>
<path d="M27.7853 155.087C15.3861 139.489 -7.14418 102.563 13.1308 96.5937C24.9659 93.109 44.6938 122.729 46.1028 122.729C46.9479 122.729 14.65 75.0149 35.6756 65.7292C48.0749 60.2532 68.3643 92.6112 70.0553 91.8645C71.7464 91.1177 45.5385 50.2969 65.5465 41.5852C74.5641 37.6588 81.8141 49.5502 91.4722 65.7292C93.5524 69.2139 100.207 56.2707 115.988 28.3931" stroke="#DDD1FF" stroke-width="10" stroke-linecap="round"/>
<path d="M115.988 28.3929L144.736 5.35147C145.401 4.81852 146.384 5.29641 146.357 6.14814C146.11 13.8272 145.188 39.5973 143.835 42.1359C141.581 46.3673 122.751 76.4321 122.751 76.4321" stroke="white" stroke-width="10" stroke-linecap="round"/>
<path d="M107.13 78.6724C79.3913 83.5689 56.1824 97.1877 67.5181 111.279C75.1268 120.738 89.994 112.403 99.6527 111.279C108.391 110.263 119.739 111.724 123.522 119.069C125.523 122.955 129.826 135.579 110.352 140.899C90.8776 146.22 95.98 153.578 95.98 158.572" stroke="#DDD1FF" stroke-width="10" stroke-linecap="round"/>
<path d="M116.286 28.5355C122.986 28.5355 132.466 27.9695 142.59 40.7976" stroke="white" stroke-width="10" stroke-linecap="round"/>
<path d="M28.3481 194.959C31.6731 194.65 40.1606 195.701 47.5106 202.379" stroke="white" stroke-width="10" stroke-linecap="round"/>
</svg>
